<svg xmlns="http://www.w3.org/2000/svg" width="600" height="600" viewBox="0 0 600 600">
  <g fill="none" stroke="#F3EFE5" stroke-width="1" opacity="0.5">
    <path d="M-20 480 C 100 440, 180 520, 280 470 S 460 380, 620 430" />
    <path d="M-20 420 C 90 390, 200 460, 300 410 S 470 320, 620 370" />
    <path d="M-20 360 C 110 330, 210 400, 320 350 S 480 260, 620 310" />
    <path d="M-20 300 C 100 270, 220 340, 330 290 S 490 200, 620 250" />
    <path d="M-20 240 C 120 210, 230 280, 340 230 S 500 140, 620 190" />
    <path d="M-20 180 C 110 150, 240 220, 350 170 S 510 80, 620 130" />
    <path d="M-20 120 C 130 90, 250 160, 360 110 S 520 20, 620 70" />
  </g>
</svg>
